<?xml version="1.0" standalone="no"?>
<!DOCTYPE svg PUBLIC "-//W3C//DTD SVG 20010904//EN"
 "http://www.w3.org/TR/2001/REC-SVG-20010904/DTD/svg10.dtd">
<svg version="1.0" xmlns="http://www.w3.org/2000/svg"
 width="207.000000pt" height="243.000000pt" viewBox="0 0 207.000000 243.000000"
 preserveAspectRatio="xMidYMid meet">
<metadata>
Created by potrace 1.16, written by Peter Selinger 2001-2019
</metadata>
<g transform="translate(0.000000,243.000000) scale(0.100000,-0.100000)"
fill="#eeeee4" stroke="none">
<path d="M1055 2262 c-44 -42 -118 -105 -164 -139 -82 -61 -83 -63 -58 -74 35
-16 45 -42 52 -141 l6 -88 -34 0 c-42 0 -54 -13 -107 -120 -23 -47 -51 -97
-61 -112 -11 -14 -16 -33 -13 -42 8 -20 24 -21 24 -2 0 34 30 46 111 46 l79 0
0 -32 c0 -29 -10 -41 -75 -93 -41 -33 -74 -63 -75 -66 0 -4 15 -10 34 -13 41
-8 81 -38 101 -76 8 -16 15 -31 15 -33 0 -3 -32 -31 -72 -63 l-71 -57 54 -20
c47 -17 57 -25 73 -61 41 -92 45 -565 6 -667 -9 -26 -27 -60 -39 -75 -26 -33
-21 -40 15 -21 26 14 32 13 77 -9 60 -31 117 -88 155 -154 l29 -51 43 53 c23
29 46 63 51 76 5 12 14 22 22 22 7 0 37 25 67 55 l54 55 -33 0 c-28 0 -45 13
-117 85 l-84 86 -2 313 c-2 239 -6 317 -16 329 -9 10 -10 17 -2 22 6 4 10 76
10 201 l0 194 95 0 c55 0 95 -4 95 -10 0 -5 -15 -30 -32 -56 -27 -37 -33 -55
-33 -96 0 -43 4 -53 33 -79 18 -16 44 -29 58 -29 l26 0 -26 31 c-14 17 -29 42
-32 55 -19 76 40 206 156 344 72 86 93 120 73 120 -4 0 -17 -12 -29 -27 l-22
-28 -181 -3 -181 -4 1 49 c0 26 4 122 8 213 7 140 6 166 -6 173 -13 8 -12 10
0 20 13 10 35 78 25 77 -2 0 -39 -35 -83 -78z"/>
</g>
</svg>
